<?xml version="1.0" standalone="no"?>
<!DOCTYPE svg PUBLIC "-//W3C//DTD SVG 20010904//EN"
 "http://www.w3.org/TR/2001/REC-SVG-20010904/DTD/svg10.dtd">
<svg version="1.0" xmlns="http://www.w3.org/2000/svg"
 width="188.000000pt" height="208.000000pt" viewBox="0 0 188.000000 208.000000"
 preserveAspectRatio="xMidYMid meet">
<metadata>
Created by potrace 1.15, written by Peter Selinger 2001-2017
</metadata>
<g transform="translate(0.000000,208.000000) scale(0.100000,-0.100000)"
fill="#000000" stroke="none">
<path d="M750 1766 c-224 -50 -398 -172 -536 -374 -1 -2 -40 13 -86 33 -45 21
-93 41 -105 46 l-23 9 0 -296 0 -295 44 -19 c42 -18 45 -21 56 -77 54 -272
223 -491 471 -607 114 -54 178 -68 334 -73 119 -4 153 -2 230 16 168 40 334
142 446 275 70 82 153 243 171 330 12 58 13 59 65 82 l53 24 0 295 0 295 -32
-14 c-18 -7 -61 -26 -96 -41 -34 -15 -64 -26 -65 -24 -2 2 -20 30 -40 62 -52
80 -149 176 -235 231 -155 101 -280 136 -472 135 -69 -1 -150 -7 -180 -13z
m-175 -588 c17 -7 24 -17 20 -28 -4 -11 5 -21 28 -32 32 -15 34 -15 65 13 18
16 44 29 58 29 15 0 71 -20 126 -45 55 -25 104 -45 110 -45 5 0 40 14 78 30
90 39 124 39 162 -2 29 -31 29 -31 63 -15 24 12 32 21 29 35 -4 13 3 22 22 31
15 6 31 8 35 4 9 -9 179 -392 179 -404 0 -7 -61 -32 -65 -27 -1 2 -6 11 -11
20 -8 15 -12 15 -43 2 -28 -12 -32 -18 -27 -38 4 -17 -2 -41 -19 -73 -30 -55
-47 -68 -74 -53 -32 17 -46 12 -28 -8 31 -34 16 -92 -24 -92 -9 0 -42 12 -73
26 -61 28 -76 25 -76 -11 0 -26 -24 -55 -45 -55 -7 0 -28 6 -46 14 -30 13 -37
12 -71 -5 -68 -35 -105 -17 -95 46 3 19 4 35 1 35 -3 0 -23 -9 -45 -20 -30
-16 -44 -18 -59 -10 -21 11 -36 52 -26 69 10 16 -11 22 -37 10 -30 -14 -67 3
-67 30 0 21 -22 33 -45 25 -8 -4 -27 8 -45 28 -25 26 -30 40 -27 67 3 30 0 35
-30 47 -41 18 -40 18 -46 -6 -5 -19 -7 -19 -39 -5 -18 8 -32 18 -31 24 7 30
177 401 184 401 4 0 20 -5 34 -12z"/>
</g>
</svg>
